<mxfile host="app.diagrams.net" agent="Mozilla/5.0 (X11; Linux x86_64; rv:140.0) Gecko/20100101 Firefox/140.0" version="28.0.5">
  <diagram name="Page-1" id="M6nh5kqSyP183BJfScxy">
    <mxGraphModel grid="1" page="1" gridSize="10" guides="1" tooltips="1" connect="1" arrows="1" fold="1" pageScale="1" pageWidth="850" pageHeight="1100" math="0" shadow="0">
      <root>
        <mxCell id="0" />
        <mxCell id="1" parent="0" />
        <mxCell id="iKIx_cek7uKcYlg8-iLO-14" value="" style="endArrow=block;dashed=1;endFill=0;endSize=12;html=1;rounded=0;exitX=0.5;exitY=0;exitDx=0;exitDy=0;" edge="1" parent="1" source="iKIx_cek7uKcYlg8-iLO-13">
          <mxGeometry width="160" relative="1" as="geometry">
            <mxPoint x="800" y="1200" as="sourcePoint" />
            <mxPoint x="680" y="930" as="targetPoint" />
            <Array as="points">
              <mxPoint x="800" y="1120" />
              <mxPoint x="680" y="1120" />
            </Array>
          </mxGeometry>
        </mxCell>
        <mxCell id="TZL2HEPFgD_bkCiMMXXx-1" value="&lt;p style=&quot;margin:0px;margin-top:4px;text-align:center;&quot;&gt;&lt;b&gt;BasicSoftware&lt;/b&gt;&lt;/p&gt;&lt;hr size=&quot;1&quot; style=&quot;border-style:solid;&quot;&gt;&lt;p style=&quot;margin:0px;margin-left:4px;&quot;&gt;+ field: Type&lt;/p&gt;&lt;hr size=&quot;1&quot; style=&quot;border-style:solid;&quot;&gt;&lt;p style=&quot;margin:0px;margin-left:4px;&quot;&gt;+ method(): Type&lt;/p&gt;" style="verticalAlign=top;align=left;overflow=fill;html=1;whiteSpace=wrap;" vertex="1" parent="1">
          <mxGeometry x="320" y="460" width="160" height="90" as="geometry" />
        </mxCell>
        <mxCell id="TZL2HEPFgD_bkCiMMXXx-2" value="&lt;p style=&quot;margin:0px;margin-top:4px;text-align:center;&quot;&gt;&lt;b&gt;BasicAlgorithm&lt;/b&gt;&lt;/p&gt;&lt;hr size=&quot;1&quot; style=&quot;border-style:solid;&quot;&gt;&lt;p style=&quot;margin:0px;margin-left:4px;&quot;&gt;+ field: Type&lt;/p&gt;&lt;hr size=&quot;1&quot; style=&quot;border-style:solid;&quot;&gt;&lt;p style=&quot;margin:0px;margin-left:4px;&quot;&gt;+ method(): Type&lt;/p&gt;" style="verticalAlign=top;align=left;overflow=fill;html=1;whiteSpace=wrap;" vertex="1" parent="1">
          <mxGeometry x="320" y="290" width="160" height="90" as="geometry" />
        </mxCell>
        <mxCell id="TZL2HEPFgD_bkCiMMXXx-3" value="Use" style="endArrow=open;endSize=12;dashed=1;html=1;rounded=0;exitX=0.5;exitY=1;exitDx=0;exitDy=0;" edge="1" parent="1" source="TZL2HEPFgD_bkCiMMXXx-2" target="TZL2HEPFgD_bkCiMMXXx-1">
          <mxGeometry width="160" relative="1" as="geometry">
            <mxPoint x="350" y="410" as="sourcePoint" />
            <mxPoint x="510" y="410" as="targetPoint" />
          </mxGeometry>
        </mxCell>
        <mxCell id="TZL2HEPFgD_bkCiMMXXx-4" value="&lt;p style=&quot;margin:0px;margin-top:4px;text-align:center;&quot;&gt;&lt;b&gt;BasicProtocol&lt;/b&gt;&lt;/p&gt;&lt;hr size=&quot;1&quot; style=&quot;border-style:solid;&quot;&gt;&lt;p style=&quot;margin:0px;margin-left:4px;&quot;&gt;+ field: Type&lt;/p&gt;&lt;hr size=&quot;1&quot; style=&quot;border-style:solid;&quot;&gt;&lt;p style=&quot;margin:0px;margin-left:4px;&quot;&gt;+ method(): Type&lt;/p&gt;" style="verticalAlign=top;align=left;overflow=fill;html=1;whiteSpace=wrap;" vertex="1" parent="1">
          <mxGeometry x="320" y="120" width="160" height="90" as="geometry" />
        </mxCell>
        <mxCell id="TZL2HEPFgD_bkCiMMXXx-5" value="Use" style="endArrow=open;endSize=12;dashed=1;html=1;rounded=0;exitX=0.5;exitY=1;exitDx=0;exitDy=0;" edge="1" parent="1" source="TZL2HEPFgD_bkCiMMXXx-4">
          <mxGeometry width="160" relative="1" as="geometry">
            <mxPoint x="350" y="240" as="sourcePoint" />
            <mxPoint x="400" y="290" as="targetPoint" />
          </mxGeometry>
        </mxCell>
        <mxCell id="TZL2HEPFgD_bkCiMMXXx-6" value="&lt;p style=&quot;margin:0px;margin-top:4px;text-align:center;&quot;&gt;&lt;b&gt;BasicFitness&lt;/b&gt;&lt;/p&gt;&lt;hr size=&quot;1&quot; style=&quot;border-style:solid;&quot;&gt;&lt;p style=&quot;margin:0px;margin-left:4px;&quot;&gt;+ field: Type&lt;/p&gt;&lt;hr size=&quot;1&quot; style=&quot;border-style:solid;&quot;&gt;&lt;p style=&quot;margin:0px;margin-left:4px;&quot;&gt;+ method(): Type&lt;/p&gt;" style="verticalAlign=top;align=left;overflow=fill;html=1;whiteSpace=wrap;" vertex="1" parent="1">
          <mxGeometry x="600" y="460" width="160" height="90" as="geometry" />
        </mxCell>
        <mxCell id="TZL2HEPFgD_bkCiMMXXx-10" value="Use" style="endArrow=open;endSize=12;dashed=1;html=1;rounded=0;entryX=0;entryY=0.5;entryDx=0;entryDy=0;exitX=1;exitY=0.5;exitDx=0;exitDy=0;" edge="1" parent="1" source="TZL2HEPFgD_bkCiMMXXx-1" target="TZL2HEPFgD_bkCiMMXXx-6">
          <mxGeometry width="160" relative="1" as="geometry">
            <mxPoint x="550" y="472.25" as="sourcePoint" />
            <mxPoint x="550" y="537.75" as="targetPoint" />
          </mxGeometry>
        </mxCell>
        <mxCell id="TZL2HEPFgD_bkCiMMXXx-11" value="&lt;p style=&quot;margin:0px;margin-top:4px;text-align:center;&quot;&gt;&lt;b&gt;Variant&lt;/b&gt;&lt;/p&gt;&lt;hr size=&quot;1&quot; style=&quot;border-style:solid;&quot;&gt;&lt;p style=&quot;margin:0px;margin-left:4px;&quot;&gt;+ field: Type&lt;/p&gt;&lt;hr size=&quot;1&quot; style=&quot;border-style:solid;&quot;&gt;&lt;p style=&quot;margin:0px;margin-left:4px;&quot;&gt;+ method(): Type&lt;/p&gt;" style="verticalAlign=top;align=left;overflow=fill;html=1;whiteSpace=wrap;" vertex="1" parent="1">
          <mxGeometry x="320" y="650" width="160" height="90" as="geometry" />
        </mxCell>
        <mxCell id="TZL2HEPFgD_bkCiMMXXx-12" value="Use" style="endArrow=open;endSize=12;dashed=1;html=1;rounded=0;exitX=0.5;exitY=1;exitDx=0;exitDy=0;entryX=0.5;entryY=0;entryDx=0;entryDy=0;" edge="1" parent="1" source="TZL2HEPFgD_bkCiMMXXx-1" target="TZL2HEPFgD_bkCiMMXXx-11">
          <mxGeometry width="160" relative="1" as="geometry">
            <mxPoint x="320" y="600" as="sourcePoint" />
            <mxPoint x="480" y="600" as="targetPoint" />
          </mxGeometry>
        </mxCell>
        <mxCell id="TZL2HEPFgD_bkCiMMXXx-13" value="Use" style="endArrow=open;endSize=12;dashed=1;html=1;rounded=0;exitX=0;exitY=0.5;exitDx=0;exitDy=0;entryX=0;entryY=0.5;entryDx=0;entryDy=0;" edge="1" parent="1" source="TZL2HEPFgD_bkCiMMXXx-11" target="TZL2HEPFgD_bkCiMMXXx-1">
          <mxGeometry width="160" relative="1" as="geometry">
            <mxPoint x="240" y="700" as="sourcePoint" />
            <mxPoint x="240" y="520" as="targetPoint" />
            <Array as="points">
              <mxPoint x="240" y="695" />
              <mxPoint x="240" y="505" />
            </Array>
          </mxGeometry>
        </mxCell>
        <mxCell id="TZL2HEPFgD_bkCiMMXXx-14" value="&lt;p style=&quot;margin:0px;margin-top:4px;text-align:center;&quot;&gt;&lt;b&gt;Patch&lt;/b&gt;&lt;/p&gt;&lt;hr size=&quot;1&quot; style=&quot;border-style:solid;&quot;&gt;&lt;p style=&quot;margin:0px;margin-left:4px;&quot;&gt;+ field: Type&lt;/p&gt;&lt;hr size=&quot;1&quot; style=&quot;border-style:solid;&quot;&gt;&lt;p style=&quot;margin:0px;margin-left:4px;&quot;&gt;+ method(): Type&lt;/p&gt;" style="verticalAlign=top;align=left;overflow=fill;html=1;whiteSpace=wrap;" vertex="1" parent="1">
          <mxGeometry x="600" y="650" width="160" height="90" as="geometry" />
        </mxCell>
        <mxCell id="TZL2HEPFgD_bkCiMMXXx-15" value="Use" style="endArrow=open;endSize=12;dashed=1;html=1;rounded=0;exitX=1;exitY=0.5;exitDx=0;exitDy=0;entryX=0;entryY=0.5;entryDx=0;entryDy=0;" edge="1" parent="1" source="TZL2HEPFgD_bkCiMMXXx-11" target="TZL2HEPFgD_bkCiMMXXx-14">
          <mxGeometry width="160" relative="1" as="geometry">
            <mxPoint x="540" y="640" as="sourcePoint" />
            <mxPoint x="540" y="740" as="targetPoint" />
          </mxGeometry>
        </mxCell>
        <mxCell id="TZL2HEPFgD_bkCiMMXXx-16" value="&lt;p style=&quot;margin:0px;margin-top:4px;text-align:center;&quot;&gt;&lt;b&gt;AbstractEdit&lt;/b&gt;&lt;/p&gt;&lt;hr size=&quot;1&quot; style=&quot;border-style:solid;&quot;&gt;&lt;p style=&quot;margin:0px;margin-left:4px;&quot;&gt;+ field: Type&lt;/p&gt;&lt;hr size=&quot;1&quot; style=&quot;border-style:solid;&quot;&gt;&lt;p style=&quot;margin:0px;margin-left:4px;&quot;&gt;+ method(): Type&lt;/p&gt;" style="verticalAlign=top;align=left;overflow=fill;html=1;whiteSpace=wrap;" vertex="1" parent="1">
          <mxGeometry x="600" y="840" width="160" height="90" as="geometry" />
        </mxCell>
        <mxCell id="TZL2HEPFgD_bkCiMMXXx-17" value="Use" style="endArrow=open;endSize=12;dashed=1;html=1;rounded=0;exitX=0.5;exitY=1;exitDx=0;exitDy=0;entryX=0.5;entryY=0;entryDx=0;entryDy=0;" edge="1" parent="1" source="TZL2HEPFgD_bkCiMMXXx-14" target="TZL2HEPFgD_bkCiMMXXx-16">
          <mxGeometry width="160" relative="1" as="geometry">
            <mxPoint x="620" y="780" as="sourcePoint" />
            <mxPoint x="740" y="780" as="targetPoint" />
          </mxGeometry>
        </mxCell>
        <mxCell id="TZL2HEPFgD_bkCiMMXXx-20" value="&lt;p style=&quot;margin:0px;margin-top:4px;text-align:center;&quot;&gt;&lt;b&gt;TemplatedFitness&lt;/b&gt;&lt;/p&gt;&lt;hr size=&quot;1&quot; style=&quot;border-style:solid;&quot;&gt;&lt;p style=&quot;margin:0px;margin-left:4px;&quot;&gt;+ field: Type&lt;/p&gt;&lt;hr size=&quot;1&quot; style=&quot;border-style:solid;&quot;&gt;&lt;p style=&quot;margin:0px;margin-left:4px;&quot;&gt;+ method(): Type&lt;/p&gt;" style="verticalAlign=top;align=left;overflow=fill;html=1;whiteSpace=wrap;" vertex="1" parent="1">
          <mxGeometry x="850" y="550" width="160" height="90" as="geometry" />
        </mxCell>
        <mxCell id="TZL2HEPFgD_bkCiMMXXx-21" value="Extends" style="endArrow=block;endSize=16;endFill=0;html=1;rounded=0;entryX=0.5;entryY=1;entryDx=0;entryDy=0;exitX=-0.005;exitY=0.555;exitDx=0;exitDy=0;exitPerimeter=0;" edge="1" parent="1" source="TZL2HEPFgD_bkCiMMXXx-20" target="TZL2HEPFgD_bkCiMMXXx-6">
          <mxGeometry x="-0.3333" y="15" width="160" relative="1" as="geometry">
            <mxPoint x="840" y="600" as="sourcePoint" />
            <mxPoint x="640" y="600" as="targetPoint" />
            <Array as="points">
              <mxPoint x="680" y="600" />
            </Array>
            <mxPoint as="offset" />
          </mxGeometry>
        </mxCell>
        <mxCell id="TZL2HEPFgD_bkCiMMXXx-22" value="&lt;p style=&quot;margin:0px;margin-top:4px;text-align:center;&quot;&gt;&lt;b&gt;TemplatedEdit&lt;/b&gt;&lt;/p&gt;&lt;hr size=&quot;1&quot; style=&quot;border-style:solid;&quot;&gt;&lt;p style=&quot;margin:0px;margin-left:4px;&quot;&gt;+ field: Type&lt;/p&gt;&lt;hr size=&quot;1&quot; style=&quot;border-style:solid;&quot;&gt;&lt;p style=&quot;margin:0px;margin-left:4px;&quot;&gt;+ method(): Type&lt;/p&gt;" style="verticalAlign=top;align=left;overflow=fill;html=1;whiteSpace=wrap;" vertex="1" parent="1">
          <mxGeometry x="880" y="840" width="160" height="90" as="geometry" />
        </mxCell>
        <mxCell id="TZL2HEPFgD_bkCiMMXXx-23" value="Extends" style="endArrow=block;endSize=16;endFill=0;html=1;rounded=0;exitX=0;exitY=0.5;exitDx=0;exitDy=0;entryX=1;entryY=0.5;entryDx=0;entryDy=0;" edge="1" parent="1" source="TZL2HEPFgD_bkCiMMXXx-22">
          <mxGeometry width="160" relative="1" as="geometry">
            <mxPoint x="780" y="990" as="sourcePoint" />
            <mxPoint x="760" y="885" as="targetPoint" />
          </mxGeometry>
        </mxCell>
        <mxCell id="TZL2HEPFgD_bkCiMMXXx-24" value="&lt;p style=&quot;margin:0px;margin-top:4px;text-align:center;&quot;&gt;&lt;b&gt;AbstractModel&lt;/b&gt;&lt;/p&gt;&lt;hr size=&quot;1&quot; style=&quot;border-style:solid;&quot;&gt;&lt;p style=&quot;margin:0px;margin-left:4px;&quot;&gt;+ field: Type&lt;/p&gt;&lt;hr size=&quot;1&quot; style=&quot;border-style:solid;&quot;&gt;&lt;p style=&quot;margin:0px;margin-left:4px;&quot;&gt;+ method(): Type&lt;/p&gt;" style="verticalAlign=top;align=left;overflow=fill;html=1;whiteSpace=wrap;" vertex="1" parent="1">
          <mxGeometry x="320" y="840" width="160" height="90" as="geometry" />
        </mxCell>
        <mxCell id="TZL2HEPFgD_bkCiMMXXx-33" value="&lt;p style=&quot;margin:0px;margin-top:4px;text-align:center;&quot;&gt;&lt;b&gt;ParamFileConfigModel&lt;/b&gt;&lt;/p&gt;&lt;hr size=&quot;1&quot; style=&quot;border-style:solid;&quot;&gt;&lt;p style=&quot;margin:0px;margin-left:4px;&quot;&gt;+ field: Type&lt;/p&gt;&lt;hr size=&quot;1&quot; style=&quot;border-style:solid;&quot;&gt;&lt;p style=&quot;margin:0px;margin-left:4px;&quot;&gt;+ method(): Type&lt;/p&gt;" style="verticalAlign=top;align=left;overflow=fill;html=1;whiteSpace=wrap;" vertex="1" parent="1">
          <mxGeometry x="320" y="1410" width="160" height="90" as="geometry" />
        </mxCell>
        <mxCell id="TZL2HEPFgD_bkCiMMXXx-34" value="" style="endArrow=block;dashed=1;endFill=0;endSize=12;html=1;rounded=0;entryX=0.5;entryY=1;entryDx=0;entryDy=0;exitX=0.5;exitY=0;exitDx=0;exitDy=0;" edge="1" parent="1" source="TZL2HEPFgD_bkCiMMXXx-33" target="TZL2HEPFgD_bkCiMMXXx-35">
          <mxGeometry width="160" relative="1" as="geometry">
            <mxPoint x="465" y="1340" as="sourcePoint" />
            <mxPoint x="400" y="1280" as="targetPoint" />
          </mxGeometry>
        </mxCell>
        <mxCell id="TZL2HEPFgD_bkCiMMXXx-35" value="&lt;p style=&quot;margin:0px;margin-top:4px;text-align:center;&quot;&gt;&lt;b&gt;AbstractConfigModel&lt;/b&gt;&lt;/p&gt;&lt;hr size=&quot;1&quot; style=&quot;border-style:solid;&quot;&gt;&lt;p style=&quot;margin:0px;margin-left:4px;&quot;&gt;+ field: Type&lt;/p&gt;&lt;hr size=&quot;1&quot; style=&quot;border-style:solid;&quot;&gt;&lt;p style=&quot;margin:0px;margin-left:4px;&quot;&gt;+ method(): Type&lt;/p&gt;" style="verticalAlign=top;align=left;overflow=fill;html=1;whiteSpace=wrap;" vertex="1" parent="1">
          <mxGeometry x="320" y="1220" width="160" height="90" as="geometry" />
        </mxCell>
        <mxCell id="TZL2HEPFgD_bkCiMMXXx-36" value="Extends" style="endArrow=block;endSize=16;endFill=0;html=1;rounded=0;exitX=0.5;exitY=0;exitDx=0;exitDy=0;entryX=0.5;entryY=1;entryDx=0;entryDy=0;" edge="1" parent="1" source="TZL2HEPFgD_bkCiMMXXx-35" target="TZL2HEPFgD_bkCiMMXXx-24">
          <mxGeometry x="0.6552" y="-30" width="160" relative="1" as="geometry">
            <mxPoint x="399.1700000000001" y="1040" as="sourcePoint" />
            <mxPoint x="399.1700000000001" y="940" as="targetPoint" />
            <Array as="points" />
            <mxPoint as="offset" />
          </mxGeometry>
        </mxCell>
        <mxCell id="iKIx_cek7uKcYlg8-iLO-1" value="&lt;p style=&quot;margin:0px;margin-top:4px;text-align:center;&quot;&gt;&lt;b&gt;XmlNodeDeletionTemplatedEdit&lt;/b&gt;&lt;/p&gt;&lt;hr size=&quot;1&quot; style=&quot;border-style:solid;&quot;&gt;&lt;p style=&quot;margin:0px;margin-left:4px;&quot;&gt;+ field: Type&lt;/p&gt;&lt;hr size=&quot;1&quot; style=&quot;border-style:solid;&quot;&gt;&lt;p style=&quot;margin:0px;margin-left:4px;&quot;&gt;+ method(): Type&lt;/p&gt;" style="verticalAlign=top;align=left;overflow=fill;html=1;whiteSpace=wrap;" vertex="1" parent="1">
          <mxGeometry x="1140" y="1220" width="200" height="90" as="geometry" />
        </mxCell>
        <mxCell id="iKIx_cek7uKcYlg8-iLO-2" value="&lt;p style=&quot;margin:0px;margin-top:4px;text-align:center;&quot;&gt;&lt;b&gt;LineDeletionEdit&lt;/b&gt;&lt;/p&gt;&lt;hr size=&quot;1&quot; style=&quot;border-style:solid;&quot;&gt;&lt;p style=&quot;margin:0px;margin-left:4px;&quot;&gt;+ field: Type&lt;/p&gt;&lt;hr size=&quot;1&quot; style=&quot;border-style:solid;&quot;&gt;&lt;p style=&quot;margin:0px;margin-left:4px;&quot;&gt;+ method(): Type&lt;/p&gt;" style="verticalAlign=top;align=left;overflow=fill;html=1;whiteSpace=wrap;" vertex="1" parent="1">
          <mxGeometry x="520" y="1220" width="160" height="90" as="geometry" />
        </mxCell>
        <mxCell id="iKIx_cek7uKcYlg8-iLO-5" value="Use" style="endArrow=open;endSize=12;dashed=1;html=1;rounded=0;exitX=0.5;exitY=1;exitDx=0;exitDy=0;entryX=0.5;entryY=0;entryDx=0;entryDy=0;" edge="1" parent="1">
          <mxGeometry width="160" relative="1" as="geometry">
            <mxPoint x="399.23" y="740" as="sourcePoint" />
            <mxPoint x="399.23" y="840" as="targetPoint" />
          </mxGeometry>
        </mxCell>
        <mxCell id="iKIx_cek7uKcYlg8-iLO-6" value="" style="endArrow=block;dashed=1;endFill=0;endSize=12;html=1;rounded=0;" edge="1" parent="1">
          <mxGeometry width="160" relative="1" as="geometry">
            <mxPoint x="600" y="1220" as="sourcePoint" />
            <mxPoint x="680" y="930" as="targetPoint" />
            <Array as="points">
              <mxPoint x="600" y="1120" />
              <mxPoint x="680" y="1120" />
            </Array>
          </mxGeometry>
        </mxCell>
        <mxCell id="iKIx_cek7uKcYlg8-iLO-7" value="" style="endArrow=block;endSize=16;endFill=0;html=1;rounded=0;entryX=0.5;entryY=1;entryDx=0;entryDy=0;exitX=0.438;exitY=0;exitDx=0;exitDy=0;exitPerimeter=0;" edge="1" parent="1" source="TZL2HEPFgD_bkCiMMXXx-25" target="TZL2HEPFgD_bkCiMMXXx-24">
          <mxGeometry x="0.0021" width="160" relative="1" as="geometry">
            <mxPoint y="1200" as="sourcePoint" />
            <mxPoint x="400" y="980" as="targetPoint" />
            <Array as="points">
              <mxPoint y="1120" />
              <mxPoint x="400" y="1120" />
            </Array>
            <mxPoint as="offset" />
          </mxGeometry>
        </mxCell>
        <mxCell id="iKIx_cek7uKcYlg8-iLO-9" value="" style="endArrow=block;dashed=1;endFill=0;endSize=12;html=1;rounded=0;exitX=0.5;exitY=0;exitDx=0;exitDy=0;entryX=1;entryY=0.444;entryDx=0;entryDy=0;entryPerimeter=0;" edge="1" parent="1" source="iKIx_cek7uKcYlg8-iLO-1" target="TZL2HEPFgD_bkCiMMXXx-22">
          <mxGeometry width="160" relative="1" as="geometry">
            <mxPoint x="1219.09" y="1040" as="sourcePoint" />
            <mxPoint x="1070" y="880" as="targetPoint" />
            <Array as="points">
              <mxPoint x="1240" y="880" />
            </Array>
          </mxGeometry>
        </mxCell>
        <mxCell id="iKIx_cek7uKcYlg8-iLO-10" value="Extends" style="endArrow=block;endSize=16;endFill=0;html=1;rounded=0;exitX=0.5;exitY=0;exitDx=0;exitDy=0;entryX=0.5;entryY=1;entryDx=0;entryDy=0;" edge="1" parent="1" source="iKIx_cek7uKcYlg8-iLO-12" target="iKIx_cek7uKcYlg8-iLO-1">
          <mxGeometry width="160" relative="1" as="geometry">
            <mxPoint x="1300" y="1430" as="sourcePoint" />
            <mxPoint x="1180" y="1430" as="targetPoint" />
          </mxGeometry>
        </mxCell>
        <mxCell id="iKIx_cek7uKcYlg8-iLO-12" value="&lt;p style=&quot;margin:0px;margin-top:4px;text-align:center;&quot;&gt;&lt;b&gt;SrcmlStmtDeletionEdit&lt;/b&gt;&lt;/p&gt;&lt;hr size=&quot;1&quot; style=&quot;border-style:solid;&quot;&gt;&lt;p style=&quot;margin:0px;margin-left:4px;&quot;&gt;+ field: Type&lt;/p&gt;&lt;hr size=&quot;1&quot; style=&quot;border-style:solid;&quot;&gt;&lt;p style=&quot;margin:0px;margin-left:4px;&quot;&gt;+ method(): Type&lt;/p&gt;" style="verticalAlign=top;align=left;overflow=fill;html=1;whiteSpace=wrap;" vertex="1" parent="1">
          <mxGeometry x="1140" y="1420" width="200" height="90" as="geometry" />
        </mxCell>
        <mxCell id="iKIx_cek7uKcYlg8-iLO-13" value="&lt;p style=&quot;margin:0px;margin-top:4px;text-align:center;&quot;&gt;&lt;b&gt;ParamSettingEdit&lt;/b&gt;&lt;/p&gt;&lt;hr size=&quot;1&quot; style=&quot;border-style:solid;&quot;&gt;&lt;p style=&quot;margin:0px;margin-left:4px;&quot;&gt;+ field: Type&lt;/p&gt;&lt;hr size=&quot;1&quot; style=&quot;border-style:solid;&quot;&gt;&lt;p style=&quot;margin:0px;margin-left:4px;&quot;&gt;+ method(): Type&lt;/p&gt;" style="verticalAlign=top;align=left;overflow=fill;html=1;whiteSpace=wrap;" vertex="1" parent="1">
          <mxGeometry x="720" y="1220" width="160" height="90" as="geometry" />
        </mxCell>
        <mxCell id="iKIx_cek7uKcYlg8-iLO-18" value="&lt;p style=&quot;margin:0px;margin-top:4px;text-align:center;&quot;&gt;&lt;b&gt;AstorStmtReplacementEdit&lt;/b&gt;&lt;/p&gt;&lt;hr size=&quot;1&quot; style=&quot;border-style:solid;&quot;&gt;&lt;p style=&quot;margin:0px;margin-left:4px;&quot;&gt;+ field: Type&lt;/p&gt;&lt;hr size=&quot;1&quot; style=&quot;border-style:solid;&quot;&gt;&lt;p style=&quot;margin:0px;margin-left:4px;&quot;&gt;+ method(): Type&lt;/p&gt;" style="verticalAlign=top;align=left;overflow=fill;html=1;whiteSpace=wrap;" vertex="1" parent="1">
          <mxGeometry x="900" y="1220" width="160" height="90" as="geometry" />
        </mxCell>
        <mxCell id="iKIx_cek7uKcYlg8-iLO-19" value="" style="endArrow=block;dashed=1;endFill=0;endSize=12;html=1;rounded=0;entryX=0.5;entryY=1;entryDx=0;entryDy=0;exitX=0.5;exitY=0;exitDx=0;exitDy=0;" edge="1" parent="1" source="iKIx_cek7uKcYlg8-iLO-18" target="TZL2HEPFgD_bkCiMMXXx-16">
          <mxGeometry width="160" relative="1" as="geometry">
            <mxPoint x="980" y="1210" as="sourcePoint" />
            <mxPoint x="679.9999999999995" y="950" as="targetPoint" />
            <Array as="points">
              <mxPoint x="980" y="1120" />
              <mxPoint x="680" y="1120" />
            </Array>
          </mxGeometry>
        </mxCell>
        <mxCell id="iKIx_cek7uKcYlg8-iLO-20" value="&lt;p style=&quot;margin:0px;margin-top:4px;text-align:center;&quot;&gt;&lt;b&gt;BasicHook&lt;/b&gt;&lt;/p&gt;&lt;hr size=&quot;1&quot; style=&quot;border-style:solid;&quot;&gt;&lt;p style=&quot;margin:0px;margin-left:4px;&quot;&gt;+ field: Type&lt;/p&gt;&lt;hr size=&quot;1&quot; style=&quot;border-style:solid;&quot;&gt;&lt;p style=&quot;margin:0px;margin-left:4px;&quot;&gt;+ method(): Type&lt;/p&gt;" style="verticalAlign=top;align=left;overflow=fill;html=1;whiteSpace=wrap;" vertex="1" parent="1">
          <mxGeometry x="600" y="290" width="160" height="90" as="geometry" />
        </mxCell>
        <mxCell id="iKIx_cek7uKcYlg8-iLO-21" value="Use" style="endArrow=open;endSize=12;dashed=1;html=1;rounded=0;exitX=1;exitY=0.5;exitDx=0;exitDy=0;entryX=0;entryY=0.5;entryDx=0;entryDy=0;" edge="1" parent="1">
          <mxGeometry width="160" relative="1" as="geometry">
            <mxPoint x="479.9999999999991" y="334.29" as="sourcePoint" />
            <mxPoint x="599.9999999999991" y="334.29" as="targetPoint" />
          </mxGeometry>
        </mxCell>
        <mxCell id="iKIx_cek7uKcYlg8-iLO-22" value="&lt;p style=&quot;margin:0px;margin-top:4px;text-align:center;&quot;&gt;&lt;b&gt;Command&lt;/b&gt;&lt;/p&gt;&lt;hr size=&quot;1&quot; style=&quot;border-style:solid;&quot;&gt;&lt;p style=&quot;margin:0px;margin-left:4px;&quot;&gt;+ field: Type&lt;/p&gt;&lt;hr size=&quot;1&quot; style=&quot;border-style:solid;&quot;&gt;&lt;p style=&quot;margin:0px;margin-left:4px;&quot;&gt;+ method(): Type&lt;/p&gt;" style="verticalAlign=top;align=left;overflow=fill;html=1;whiteSpace=wrap;" vertex="1" parent="1">
          <mxGeometry x="40" y="440" width="160" height="90" as="geometry" />
        </mxCell>
        <mxCell id="iKIx_cek7uKcYlg8-iLO-23" value="Use" style="endArrow=open;endSize=12;dashed=1;html=1;rounded=0;exitX=-0.004;exitY=0.208;exitDx=0;exitDy=0;exitPerimeter=0;entryX=1.02;entryY=0.438;entryDx=0;entryDy=0;entryPerimeter=0;" edge="1" parent="1" source="TZL2HEPFgD_bkCiMMXXx-1" target="iKIx_cek7uKcYlg8-iLO-22">
          <mxGeometry width="160" relative="1" as="geometry">
            <mxPoint x="280" y="480" as="sourcePoint" />
            <mxPoint x="170" y="480" as="targetPoint" />
          </mxGeometry>
        </mxCell>
        <mxCell id="TZL2HEPFgD_bkCiMMXXx-25" value="&lt;p style=&quot;margin:0px;margin-top:4px;text-align:center;&quot;&gt;&lt;b&gt;AbstractRIDModel&lt;/b&gt;&lt;/p&gt;&lt;hr size=&quot;1&quot; style=&quot;border-style:solid;&quot;&gt;&lt;p style=&quot;margin:0px;margin-left:4px;&quot;&gt;+ field: Type&lt;/p&gt;&lt;hr size=&quot;1&quot; style=&quot;border-style:solid;&quot;&gt;&lt;p style=&quot;margin:0px;margin-left:4px;&quot;&gt;+ method(): Type&lt;/p&gt;" style="verticalAlign=top;align=left;overflow=fill;html=1;whiteSpace=wrap;rotation=0;" vertex="1" parent="1">
          <mxGeometry x="-70" y="1220" width="160" height="90" as="geometry" />
        </mxCell>
        <mxCell id="TZL2HEPFgD_bkCiMMXXx-27" value="" style="endArrow=block;dashed=1;endFill=0;endSize=12;html=1;rounded=0;entryX=0.438;entryY=1;entryDx=0;entryDy=0;entryPerimeter=0;exitX=0.531;exitY=0;exitDx=0;exitDy=0;exitPerimeter=0;" edge="1" parent="1" source="TZL2HEPFgD_bkCiMMXXx-28" target="TZL2HEPFgD_bkCiMMXXx-25">
          <mxGeometry width="160" relative="1" as="geometry">
            <mxPoint y="1390" as="sourcePoint" />
            <mxPoint y="1410" as="targetPoint" />
          </mxGeometry>
        </mxCell>
        <mxCell id="TZL2HEPFgD_bkCiMMXXx-28" value="&lt;p style=&quot;margin:0px;margin-top:4px;text-align:center;&quot;&gt;&lt;b&gt;LineModel&lt;/b&gt;&lt;/p&gt;&lt;hr size=&quot;1&quot; style=&quot;border-style:solid;&quot;&gt;&lt;p style=&quot;margin:0px;margin-left:4px;&quot;&gt;+ field: Type&lt;/p&gt;&lt;hr size=&quot;1&quot; style=&quot;border-style:solid;&quot;&gt;&lt;p style=&quot;margin:0px;margin-left:4px;&quot;&gt;+ method(): Type&lt;/p&gt;" style="verticalAlign=top;align=left;overflow=fill;html=1;whiteSpace=wrap;rotation=0;direction=west;flipH=1;flipV=1;" vertex="1" parent="1">
          <mxGeometry x="-85" y="1410" width="160" height="90" as="geometry" />
        </mxCell>
        <mxCell id="TZL2HEPFgD_bkCiMMXXx-29" value="" style="endArrow=block;dashed=1;endFill=0;endSize=12;html=1;rounded=0;exitX=0.5;exitY=1;exitDx=0;exitDy=0;entryX=0;entryY=0.778;entryDx=0;entryDy=0;entryPerimeter=0;" edge="1" parent="1" source="TZL2HEPFgD_bkCiMMXXx-30" target="TZL2HEPFgD_bkCiMMXXx-25">
          <mxGeometry width="160" relative="1" as="geometry">
            <mxPoint x="-330" y="1470" as="sourcePoint" />
            <mxPoint x="-100" y="1290" as="targetPoint" />
            <Array as="points">
              <mxPoint x="-195" y="1290" />
            </Array>
          </mxGeometry>
        </mxCell>
        <mxCell id="TZL2HEPFgD_bkCiMMXXx-30" value="&lt;p style=&quot;margin:0px;margin-top:4px;text-align:center;&quot;&gt;&lt;b&gt;XMLModel&lt;/b&gt;&lt;/p&gt;&lt;hr size=&quot;1&quot; style=&quot;border-style:solid;&quot;&gt;&lt;p style=&quot;margin:0px;margin-left:4px;&quot;&gt;+ field: Type&lt;/p&gt;&lt;hr size=&quot;1&quot; style=&quot;border-style:solid;&quot;&gt;&lt;p style=&quot;margin:0px;margin-left:4px;&quot;&gt;+ method(): Type&lt;/p&gt;" style="verticalAlign=top;align=left;overflow=fill;html=1;whiteSpace=wrap;rotation=0;direction=west;flipH=1;flipV=1;" vertex="1" parent="1">
          <mxGeometry x="-275" y="1410" width="160" height="90" as="geometry" />
        </mxCell>
        <mxCell id="TZL2HEPFgD_bkCiMMXXx-31" value="" style="endArrow=block;dashed=1;endFill=0;endSize=12;html=1;rounded=0;exitX=0.5;exitY=1;exitDx=0;exitDy=0;entryX=1;entryY=0.789;entryDx=0;entryDy=0;entryPerimeter=0;" edge="1" parent="1" source="TZL2HEPFgD_bkCiMMXXx-32" target="TZL2HEPFgD_bkCiMMXXx-25">
          <mxGeometry width="160" relative="1" as="geometry">
            <mxPoint x="50" y="1470" as="sourcePoint" />
            <mxPoint x="100" y="1291" as="targetPoint" />
            <Array as="points">
              <mxPoint x="185" y="1290" />
            </Array>
          </mxGeometry>
        </mxCell>
        <mxCell id="TZL2HEPFgD_bkCiMMXXx-32" value="&lt;p style=&quot;margin:0px;margin-top:4px;text-align:center;&quot;&gt;&lt;b&gt;AstorModel&lt;/b&gt;&lt;/p&gt;&lt;hr size=&quot;1&quot; style=&quot;border-style:solid;&quot;&gt;&lt;p style=&quot;margin:0px;margin-left:4px;&quot;&gt;+ field: Type&lt;/p&gt;&lt;hr size=&quot;1&quot; style=&quot;border-style:solid;&quot;&gt;&lt;p style=&quot;margin:0px;margin-left:4px;&quot;&gt;+ method(): Type&lt;/p&gt;" style="verticalAlign=top;align=left;overflow=fill;html=1;whiteSpace=wrap;rotation=0;direction=west;flipH=1;flipV=1;" vertex="1" parent="1">
          <mxGeometry x="105" y="1410" width="160" height="90" as="geometry" />
        </mxCell>
        <mxCell id="iKIx_cek7uKcYlg8-iLO-44" value="model" style="shape=umlFrame;whiteSpace=wrap;html=1;pointerEvents=0;" vertex="1" parent="1">
          <mxGeometry x="-320" y="1100" width="1740" height="460" as="geometry" />
        </mxCell>
        <mxCell id="iKIx_cek7uKcYlg8-iLO-46" value="core" style="shape=umlFrame;whiteSpace=wrap;html=1;pointerEvents=0;" vertex="1" parent="1">
          <mxGeometry x="-40" y="70" width="1110" height="920" as="geometry" />
        </mxCell>
        <mxCell id="iKIx_cek7uKcYlg8-iLO-84" value="" style="group" connectable="0" vertex="1" parent="1">
          <mxGeometry x="-1730" y="-190" width="1580" height="1020" as="geometry" />
        </mxCell>
        <mxCell id="iKIx_cek7uKcYlg8-iLO-24" value="&lt;p style=&quot;margin:0px;margin-top:4px;text-align:center;&quot;&gt;&lt;b&gt;GeneticProgramming&lt;/b&gt;&lt;/p&gt;&lt;hr size=&quot;1&quot; style=&quot;border-style:solid;&quot;&gt;&lt;p style=&quot;margin:0px;margin-left:4px;&quot;&gt;+ field: Type&lt;/p&gt;&lt;hr size=&quot;1&quot; style=&quot;border-style:solid;&quot;&gt;&lt;p style=&quot;margin:0px;margin-left:4px;&quot;&gt;+ method(): Type&lt;/p&gt;" style="verticalAlign=top;align=left;overflow=fill;html=1;whiteSpace=wrap;" vertex="1" parent="iKIx_cek7uKcYlg8-iLO-84">
          <mxGeometry x="1200" y="490" width="160" height="90" as="geometry" />
        </mxCell>
        <mxCell id="iKIx_cek7uKcYlg8-iLO-26" value="&lt;p style=&quot;margin:0px;margin-top:4px;text-align:center;&quot;&gt;&lt;b&gt;LocalSearch&lt;/b&gt;&lt;/p&gt;&lt;hr size=&quot;1&quot; style=&quot;border-style:solid;&quot;&gt;&lt;p style=&quot;margin:0px;margin-left:4px;&quot;&gt;+ field: Type&lt;/p&gt;&lt;hr size=&quot;1&quot; style=&quot;border-style:solid;&quot;&gt;&lt;p style=&quot;margin:0px;margin-left:4px;&quot;&gt;+ method(): Type&lt;/p&gt;" style="verticalAlign=top;align=left;overflow=fill;html=1;whiteSpace=wrap;" vertex="1" parent="iKIx_cek7uKcYlg8-iLO-84">
          <mxGeometry x="1200" y="320" width="160" height="90" as="geometry" />
        </mxCell>
        <mxCell id="iKIx_cek7uKcYlg8-iLO-28" value="Extends" style="endArrow=block;endSize=16;endFill=0;html=1;rounded=0;exitX=-0.01;exitY=0.44;exitDx=0;exitDy=0;entryX=1;entryY=0.5;entryDx=0;entryDy=0;exitPerimeter=0;" edge="1" parent="iKIx_cek7uKcYlg8-iLO-84" source="iKIx_cek7uKcYlg8-iLO-29">
          <mxGeometry x="-0.2178" y="20" width="160" relative="1" as="geometry">
            <mxPoint x="1080" y="360" as="sourcePoint" />
            <mxPoint x="1200" y="360" as="targetPoint" />
            <mxPoint as="offset" />
          </mxGeometry>
        </mxCell>
        <mxCell id="iKIx_cek7uKcYlg8-iLO-29" value="&lt;p style=&quot;margin:0px;margin-top:4px;text-align:center;&quot;&gt;&lt;b&gt;ValidSearch&lt;/b&gt;&lt;/p&gt;&lt;hr size=&quot;1&quot; style=&quot;border-style:solid;&quot;&gt;&lt;p style=&quot;margin:0px;margin-left:4px;&quot;&gt;+ field: Type&lt;/p&gt;&lt;hr size=&quot;1&quot; style=&quot;border-style:solid;&quot;&gt;&lt;p style=&quot;margin:0px;margin-left:4px;&quot;&gt;+ method(): Type&lt;/p&gt;" style="verticalAlign=top;align=left;overflow=fill;html=1;whiteSpace=wrap;" vertex="1" parent="iKIx_cek7uKcYlg8-iLO-84">
          <mxGeometry x="940" y="320" width="160" height="90" as="geometry" />
        </mxCell>
        <mxCell id="iKIx_cek7uKcYlg8-iLO-30" value="&lt;p style=&quot;margin:0px;margin-top:4px;text-align:center;&quot;&gt;&lt;b&gt;ValidTest&lt;/b&gt;&lt;/p&gt;&lt;hr size=&quot;1&quot; style=&quot;border-style:solid;&quot;&gt;&lt;p style=&quot;margin:0px;margin-left:4px;&quot;&gt;+ field: Type&lt;/p&gt;&lt;hr size=&quot;1&quot; style=&quot;border-style:solid;&quot;&gt;&lt;p style=&quot;margin:0px;margin-left:4px;&quot;&gt;+ method(): Type&lt;/p&gt;" style="verticalAlign=top;align=left;overflow=fill;html=1;whiteSpace=wrap;" vertex="1" parent="iKIx_cek7uKcYlg8-iLO-84">
          <mxGeometry x="450" y="320" width="160" height="90" as="geometry" />
        </mxCell>
        <mxCell id="iKIx_cek7uKcYlg8-iLO-31" value="&lt;p style=&quot;margin:0px;margin-top:4px;text-align:center;&quot;&gt;&lt;b&gt;ValidSingle&lt;/b&gt;&lt;/p&gt;&lt;hr size=&quot;1&quot; style=&quot;border-style:solid;&quot;&gt;&lt;p style=&quot;margin:0px;margin-left:4px;&quot;&gt;+ field: Type&lt;/p&gt;&lt;hr size=&quot;1&quot; style=&quot;border-style:solid;&quot;&gt;&lt;p style=&quot;margin:0px;margin-left:4px;&quot;&gt;+ method(): Type&lt;/p&gt;" style="verticalAlign=top;align=left;overflow=fill;html=1;whiteSpace=wrap;" vertex="1" parent="iKIx_cek7uKcYlg8-iLO-84">
          <mxGeometry x="450" y="420" width="160" height="90" as="geometry" />
        </mxCell>
        <mxCell id="iKIx_cek7uKcYlg8-iLO-32" value="&lt;p style=&quot;margin:0px;margin-top:4px;text-align:center;&quot;&gt;&lt;b&gt;ValidMinify&lt;/b&gt;&lt;/p&gt;&lt;hr size=&quot;1&quot; style=&quot;border-style:solid;&quot;&gt;&lt;p style=&quot;margin:0px;margin-left:4px;&quot;&gt;+ field: Type&lt;/p&gt;&lt;hr size=&quot;1&quot; style=&quot;border-style:solid;&quot;&gt;&lt;p style=&quot;margin:0px;margin-left:4px;&quot;&gt;+ method(): Type&lt;/p&gt;" style="verticalAlign=top;align=left;overflow=fill;html=1;whiteSpace=wrap;" vertex="1" parent="iKIx_cek7uKcYlg8-iLO-84">
          <mxGeometry x="450" y="520" width="160" height="90" as="geometry" />
        </mxCell>
        <mxCell id="iKIx_cek7uKcYlg8-iLO-33" value="" style="endArrow=block;endSize=16;endFill=0;html=1;rounded=0;exitX=0.998;exitY=0.444;exitDx=0;exitDy=0;exitPerimeter=0;" edge="1" parent="iKIx_cek7uKcYlg8-iLO-84" source="iKIx_cek7uKcYlg8-iLO-30">
          <mxGeometry x="0.6006" y="-19" width="160" relative="1" as="geometry">
            <mxPoint x="620" y="360" as="sourcePoint" />
            <mxPoint x="940" y="360" as="targetPoint" />
            <mxPoint as="offset" />
          </mxGeometry>
        </mxCell>
        <mxCell id="iKIx_cek7uKcYlg8-iLO-34" value="Extends" style="endArrow=block;endSize=16;endFill=0;html=1;rounded=0;" edge="1" parent="iKIx_cek7uKcYlg8-iLO-84">
          <mxGeometry x="0.7222" y="-20" width="160" relative="1" as="geometry">
            <mxPoint x="610" y="470" as="sourcePoint" />
            <mxPoint x="940" y="360" as="targetPoint" />
            <Array as="points">
              <mxPoint x="690" y="470" />
              <mxPoint x="690" y="360" />
            </Array>
            <mxPoint as="offset" />
          </mxGeometry>
        </mxCell>
        <mxCell id="iKIx_cek7uKcYlg8-iLO-35" value="" style="endArrow=block;endSize=16;endFill=0;html=1;rounded=0;" edge="1" parent="iKIx_cek7uKcYlg8-iLO-84">
          <mxGeometry x="0.6006" y="-19" width="160" relative="1" as="geometry">
            <mxPoint x="610" y="580" as="sourcePoint" />
            <mxPoint x="940" y="360" as="targetPoint" />
            <Array as="points">
              <mxPoint x="690" y="580" />
              <mxPoint x="690" y="360" />
            </Array>
            <mxPoint as="offset" />
          </mxGeometry>
        </mxCell>
        <mxCell id="iKIx_cek7uKcYlg8-iLO-83" style="edgeStyle=orthogonalEdgeStyle;rounded=0;orthogonalLoop=1;jettySize=auto;html=1;exitX=1;exitY=0.5;exitDx=0;exitDy=0;" edge="1" parent="iKIx_cek7uKcYlg8-iLO-84" source="iKIx_cek7uKcYlg8-iLO-36">
          <mxGeometry relative="1" as="geometry">
            <mxPoint x="610.1111111111113" y="665" as="targetPoint" />
          </mxGeometry>
        </mxCell>
        <mxCell id="iKIx_cek7uKcYlg8-iLO-36" value="&lt;p style=&quot;margin:0px;margin-top:4px;text-align:center;&quot;&gt;&lt;b&gt;AblationAnalysis&lt;/b&gt;&lt;/p&gt;&lt;hr size=&quot;1&quot; style=&quot;border-style:solid;&quot;&gt;&lt;p style=&quot;margin:0px;margin-left:4px;&quot;&gt;+ field: Type&lt;/p&gt;&lt;hr size=&quot;1&quot; style=&quot;border-style:solid;&quot;&gt;&lt;p style=&quot;margin:0px;margin-left:4px;&quot;&gt;+ method(): Type&lt;/p&gt;" style="verticalAlign=top;align=left;overflow=fill;html=1;whiteSpace=wrap;" vertex="1" parent="iKIx_cek7uKcYlg8-iLO-84">
          <mxGeometry x="450" y="620" width="160" height="90" as="geometry" />
        </mxCell>
        <mxCell id="iKIx_cek7uKcYlg8-iLO-37" value="" style="endArrow=block;endSize=16;endFill=0;html=1;rounded=0;exitX=1.002;exitY=0.665;exitDx=0;exitDy=0;exitPerimeter=0;" edge="1" parent="iKIx_cek7uKcYlg8-iLO-84" source="iKIx_cek7uKcYlg8-iLO-36">
          <mxGeometry x="0.6006" y="-19" width="160" relative="1" as="geometry">
            <mxPoint x="620" y="680" as="sourcePoint" />
            <mxPoint x="940" y="360" as="targetPoint" />
            <Array as="points">
              <mxPoint x="690" y="680" />
              <mxPoint x="690" y="360" />
            </Array>
            <mxPoint as="offset" />
          </mxGeometry>
        </mxCell>
        <mxCell id="iKIx_cek7uKcYlg8-iLO-47" value="&lt;p style=&quot;margin:0px;margin-top:4px;text-align:center;&quot;&gt;&lt;b&gt;GeneticProgrammingUniformConcat&lt;/b&gt;&lt;/p&gt;&lt;hr size=&quot;1&quot; style=&quot;border-style:solid;&quot;&gt;&lt;p style=&quot;margin:0px;margin-left:4px;&quot;&gt;+ field: Type&lt;/p&gt;&lt;hr size=&quot;1&quot; style=&quot;border-style:solid;&quot;&gt;&lt;p style=&quot;margin:0px;margin-left:4px;&quot;&gt;+ method(): Type&lt;/p&gt;" style="verticalAlign=top;align=left;overflow=fill;html=1;whiteSpace=wrap;" vertex="1" parent="iKIx_cek7uKcYlg8-iLO-84">
          <mxGeometry x="790" y="480" width="220" height="90" as="geometry" />
        </mxCell>
        <mxCell id="iKIx_cek7uKcYlg8-iLO-48" value="&lt;p style=&quot;margin:0px;margin-top:4px;text-align:center;&quot;&gt;&lt;b&gt;GeneticProgrammingConcat&lt;/b&gt;&lt;/p&gt;&lt;hr size=&quot;1&quot; style=&quot;border-style:solid;&quot;&gt;&lt;p style=&quot;margin:0px;margin-left:4px;&quot;&gt;+ field: Type&lt;/p&gt;&lt;hr size=&quot;1&quot; style=&quot;border-style:solid;&quot;&gt;&lt;p style=&quot;margin:0px;margin-left:4px;&quot;&gt;+ method(): Type&lt;/p&gt;" style="verticalAlign=top;align=left;overflow=fill;html=1;whiteSpace=wrap;" vertex="1" parent="iKIx_cek7uKcYlg8-iLO-84">
          <mxGeometry x="790" y="580" width="220" height="90" as="geometry" />
        </mxCell>
        <mxCell id="iKIx_cek7uKcYlg8-iLO-49" value="&lt;p style=&quot;margin:0px;margin-top:4px;text-align:center;&quot;&gt;&lt;b&gt;GeneticProgramming1Point&lt;/b&gt;&lt;/p&gt;&lt;hr size=&quot;1&quot; style=&quot;border-style:solid;&quot;&gt;&lt;p style=&quot;margin:0px;margin-left:4px;&quot;&gt;+ field: Type&lt;/p&gt;&lt;hr size=&quot;1&quot; style=&quot;border-style:solid;&quot;&gt;&lt;p style=&quot;margin:0px;margin-left:4px;&quot;&gt;+ method(): Type&lt;/p&gt;" style="verticalAlign=top;align=left;overflow=fill;html=1;whiteSpace=wrap;" vertex="1" parent="iKIx_cek7uKcYlg8-iLO-84">
          <mxGeometry x="790" y="680" width="220" height="90" as="geometry" />
        </mxCell>
        <mxCell id="iKIx_cek7uKcYlg8-iLO-50" value="&lt;p style=&quot;margin:0px;margin-top:4px;text-align:center;&quot;&gt;&lt;b&gt;GeneticProgramming2Point&lt;/b&gt;&lt;/p&gt;&lt;hr size=&quot;1&quot; style=&quot;border-style:solid;&quot;&gt;&lt;p style=&quot;margin:0px;margin-left:4px;&quot;&gt;+ field: Type&lt;/p&gt;&lt;hr size=&quot;1&quot; style=&quot;border-style:solid;&quot;&gt;&lt;p style=&quot;margin:0px;margin-left:4px;&quot;&gt;+ method(): Type&lt;/p&gt;" style="verticalAlign=top;align=left;overflow=fill;html=1;whiteSpace=wrap;" vertex="1" parent="iKIx_cek7uKcYlg8-iLO-84">
          <mxGeometry x="790" y="780" width="220" height="90" as="geometry" />
        </mxCell>
        <mxCell id="iKIx_cek7uKcYlg8-iLO-54" value="Extends" style="endArrow=block;endSize=16;endFill=0;html=1;rounded=0;" edge="1" parent="iKIx_cek7uKcYlg8-iLO-84">
          <mxGeometry x="0.68" y="-20" width="160" relative="1" as="geometry">
            <mxPoint x="1010" y="520" as="sourcePoint" />
            <mxPoint x="1200" y="520" as="targetPoint" />
            <mxPoint as="offset" />
          </mxGeometry>
        </mxCell>
        <mxCell id="iKIx_cek7uKcYlg8-iLO-56" value="&lt;p style=&quot;margin:0px;margin-top:4px;text-align:center;&quot;&gt;&lt;b&gt;GeneticProgrammingUniformInter&lt;/b&gt;&lt;/p&gt;&lt;hr size=&quot;1&quot; style=&quot;border-style:solid;&quot;&gt;&lt;p style=&quot;margin:0px;margin-left:4px;&quot;&gt;+ field: Type&lt;/p&gt;&lt;hr size=&quot;1&quot; style=&quot;border-style:solid;&quot;&gt;&lt;p style=&quot;margin:0px;margin-left:4px;&quot;&gt;+ method(): Type&lt;/p&gt;" style="verticalAlign=top;align=left;overflow=fill;html=1;whiteSpace=wrap;" vertex="1" parent="iKIx_cek7uKcYlg8-iLO-84">
          <mxGeometry x="790" y="880" width="220" height="90" as="geometry" />
        </mxCell>
        <mxCell id="iKIx_cek7uKcYlg8-iLO-57" value="" style="endArrow=block;endSize=16;endFill=0;html=1;rounded=0;entryX=1;entryY=0.333;entryDx=0;entryDy=0;entryPerimeter=0;" edge="1" parent="iKIx_cek7uKcYlg8-iLO-84">
          <mxGeometry x="0.68" y="-20" width="160" relative="1" as="geometry">
            <mxPoint x="1010" y="640" as="sourcePoint" />
            <mxPoint x="1200" y="520" as="targetPoint" />
            <Array as="points">
              <mxPoint x="1110" y="640" />
              <mxPoint x="1110" y="520" />
            </Array>
            <mxPoint as="offset" />
          </mxGeometry>
        </mxCell>
        <mxCell id="iKIx_cek7uKcYlg8-iLO-58" value="" style="endArrow=block;endSize=16;endFill=0;html=1;rounded=0;entryX=1;entryY=0.333;entryDx=0;entryDy=0;entryPerimeter=0;" edge="1" parent="iKIx_cek7uKcYlg8-iLO-84">
          <mxGeometry x="0.68" y="-20" width="160" relative="1" as="geometry">
            <mxPoint x="1010" y="740" as="sourcePoint" />
            <mxPoint x="1200" y="520" as="targetPoint" />
            <Array as="points">
              <mxPoint x="1110" y="740" />
              <mxPoint x="1110" y="640" />
              <mxPoint x="1110" y="520" />
            </Array>
            <mxPoint as="offset" />
          </mxGeometry>
        </mxCell>
        <mxCell id="iKIx_cek7uKcYlg8-iLO-59" value="" style="endArrow=block;endSize=16;endFill=0;html=1;rounded=0;entryX=1;entryY=0.333;entryDx=0;entryDy=0;entryPerimeter=0;" edge="1" parent="iKIx_cek7uKcYlg8-iLO-84">
          <mxGeometry x="0.68" y="-20" width="160" relative="1" as="geometry">
            <mxPoint x="1010" y="840" as="sourcePoint" />
            <mxPoint x="1200" y="520" as="targetPoint" />
            <Array as="points">
              <mxPoint x="1110" y="840" />
              <mxPoint x="1110" y="740" />
              <mxPoint x="1110" y="640" />
              <mxPoint x="1110" y="520" />
            </Array>
            <mxPoint as="offset" />
          </mxGeometry>
        </mxCell>
        <mxCell id="iKIx_cek7uKcYlg8-iLO-60" value="" style="endArrow=block;endSize=16;endFill=0;html=1;rounded=0;entryX=1;entryY=0.333;entryDx=0;entryDy=0;entryPerimeter=0;" edge="1" parent="iKIx_cek7uKcYlg8-iLO-84">
          <mxGeometry x="0.68" y="-20" width="160" relative="1" as="geometry">
            <mxPoint x="1010" y="940" as="sourcePoint" />
            <mxPoint x="1200" y="520" as="targetPoint" />
            <Array as="points">
              <mxPoint x="1110" y="940" />
              <mxPoint x="1110" y="740" />
              <mxPoint x="1110" y="640" />
              <mxPoint x="1110" y="520" />
            </Array>
            <mxPoint as="offset" />
          </mxGeometry>
        </mxCell>
        <mxCell id="iKIx_cek7uKcYlg8-iLO-61" value="&lt;p style=&quot;margin:0px;margin-top:4px;text-align:center;&quot;&gt;&lt;b&gt;FirstImprovement&lt;/b&gt;&lt;/p&gt;&lt;hr size=&quot;1&quot; style=&quot;border-style:solid;&quot;&gt;&lt;p style=&quot;margin:0px;margin-left:4px;&quot;&gt;+ field: Type&lt;/p&gt;&lt;hr size=&quot;1&quot; style=&quot;border-style:solid;&quot;&gt;&lt;p style=&quot;margin:0px;margin-left:4px;&quot;&gt;+ method(): Type&lt;/p&gt;" style="verticalAlign=top;align=left;overflow=fill;html=1;whiteSpace=wrap;" vertex="1" parent="iKIx_cek7uKcYlg8-iLO-84">
          <mxGeometry x="1210" y="40" width="160" height="90" as="geometry" />
        </mxCell>
        <mxCell id="iKIx_cek7uKcYlg8-iLO-62" value="Extends" style="endArrow=block;endSize=16;endFill=0;html=1;rounded=0;exitX=0.5;exitY=1;exitDx=0;exitDy=0;" edge="1" parent="iKIx_cek7uKcYlg8-iLO-84" source="iKIx_cek7uKcYlg8-iLO-61">
          <mxGeometry x="0.5772" y="31" width="160" relative="1" as="geometry">
            <mxPoint x="1291.1800000000003" y="190" as="sourcePoint" />
            <mxPoint x="1290" y="320" as="targetPoint" />
            <mxPoint as="offset" />
          </mxGeometry>
        </mxCell>
        <mxCell id="iKIx_cek7uKcYlg8-iLO-63" value="&lt;p style=&quot;margin:0px;margin-top:4px;text-align:center;&quot;&gt;&lt;b&gt;DummySearch&lt;/b&gt;&lt;/p&gt;&lt;hr size=&quot;1&quot; style=&quot;border-style:solid;&quot;&gt;&lt;p style=&quot;margin:0px;margin-left:4px;&quot;&gt;+ field: Type&lt;/p&gt;&lt;hr size=&quot;1&quot; style=&quot;border-style:solid;&quot;&gt;&lt;p style=&quot;margin:0px;margin-left:4px;&quot;&gt;+ method(): Type&lt;/p&gt;" style="verticalAlign=top;align=left;overflow=fill;html=1;whiteSpace=wrap;" vertex="1" parent="iKIx_cek7uKcYlg8-iLO-84">
          <mxGeometry x="1040" y="40" width="160" height="90" as="geometry" />
        </mxCell>
        <mxCell id="iKIx_cek7uKcYlg8-iLO-64" value="&lt;p style=&quot;margin:0px;margin-top:4px;text-align:center;&quot;&gt;&lt;b&gt;DebugSearch&lt;/b&gt;&lt;/p&gt;&lt;hr size=&quot;1&quot; style=&quot;border-style:solid;&quot;&gt;&lt;p style=&quot;margin:0px;margin-left:4px;&quot;&gt;+ field: Type&lt;/p&gt;&lt;hr size=&quot;1&quot; style=&quot;border-style:solid;&quot;&gt;&lt;p style=&quot;margin:0px;margin-left:4px;&quot;&gt;+ method(): Type&lt;/p&gt;" style="verticalAlign=top;align=left;overflow=fill;html=1;whiteSpace=wrap;" vertex="1" parent="iKIx_cek7uKcYlg8-iLO-84">
          <mxGeometry x="870" y="40" width="160" height="90" as="geometry" />
        </mxCell>
        <mxCell id="iKIx_cek7uKcYlg8-iLO-65" value="&lt;p style=&quot;margin:0px;margin-top:4px;text-align:center;&quot;&gt;&lt;b&gt;RandomSearch&lt;/b&gt;&lt;/p&gt;&lt;hr size=&quot;1&quot; style=&quot;border-style:solid;&quot;&gt;&lt;p style=&quot;margin:0px;margin-left:4px;&quot;&gt;+ field: Type&lt;/p&gt;&lt;hr size=&quot;1&quot; style=&quot;border-style:solid;&quot;&gt;&lt;p style=&quot;margin:0px;margin-left:4px;&quot;&gt;+ method(): Type&lt;/p&gt;" style="verticalAlign=top;align=left;overflow=fill;html=1;whiteSpace=wrap;" vertex="1" parent="iKIx_cek7uKcYlg8-iLO-84">
          <mxGeometry x="700" y="40" width="160" height="90" as="geometry" />
        </mxCell>
        <mxCell id="iKIx_cek7uKcYlg8-iLO-66" value="&lt;p style=&quot;margin:0px;margin-top:4px;text-align:center;&quot;&gt;&lt;b&gt;RandomWalk&lt;/b&gt;&lt;/p&gt;&lt;hr size=&quot;1&quot; style=&quot;border-style:solid;&quot;&gt;&lt;p style=&quot;margin:0px;margin-left:4px;&quot;&gt;+ field: Type&lt;/p&gt;&lt;hr size=&quot;1&quot; style=&quot;border-style:solid;&quot;&gt;&lt;p style=&quot;margin:0px;margin-left:4px;&quot;&gt;+ method(): Type&lt;/p&gt;" style="verticalAlign=top;align=left;overflow=fill;html=1;whiteSpace=wrap;" vertex="1" parent="iKIx_cek7uKcYlg8-iLO-84">
          <mxGeometry x="530" y="40" width="160" height="90" as="geometry" />
        </mxCell>
        <mxCell id="iKIx_cek7uKcYlg8-iLO-67" value="&lt;p style=&quot;margin:0px;margin-top:4px;text-align:center;&quot;&gt;&lt;b&gt;BestImprovement&lt;/b&gt;&lt;/p&gt;&lt;hr size=&quot;1&quot; style=&quot;border-style:solid;&quot;&gt;&lt;p style=&quot;margin:0px;margin-left:4px;&quot;&gt;+ field: Type&lt;/p&gt;&lt;hr size=&quot;1&quot; style=&quot;border-style:solid;&quot;&gt;&lt;p style=&quot;margin:0px;margin-left:4px;&quot;&gt;+ method(): Type&lt;/p&gt;" style="verticalAlign=top;align=left;overflow=fill;html=1;whiteSpace=wrap;" vertex="1" parent="iKIx_cek7uKcYlg8-iLO-84">
          <mxGeometry x="360" y="40" width="160" height="90" as="geometry" />
        </mxCell>
        <mxCell id="iKIx_cek7uKcYlg8-iLO-68" value="&lt;p style=&quot;margin:0px;margin-top:4px;text-align:center;&quot;&gt;&lt;b&gt;WorstImprovement&lt;/b&gt;&lt;/p&gt;&lt;hr size=&quot;1&quot; style=&quot;border-style:solid;&quot;&gt;&lt;p style=&quot;margin:0px;margin-left:4px;&quot;&gt;+ field: Type&lt;/p&gt;&lt;hr size=&quot;1&quot; style=&quot;border-style:solid;&quot;&gt;&lt;p style=&quot;margin:0px;margin-left:4px;&quot;&gt;+ method(): Type&lt;/p&gt;" style="verticalAlign=top;align=left;overflow=fill;html=1;whiteSpace=wrap;" vertex="1" parent="iKIx_cek7uKcYlg8-iLO-84">
          <mxGeometry x="190" y="40" width="160" height="90" as="geometry" />
        </mxCell>
        <mxCell id="iKIx_cek7uKcYlg8-iLO-69" value="&lt;p style=&quot;margin:0px;margin-top:4px;text-align:center;&quot;&gt;&lt;b&gt;TabuSearch&lt;/b&gt;&lt;/p&gt;&lt;hr size=&quot;1&quot; style=&quot;border-style:solid;&quot;&gt;&lt;p style=&quot;margin:0px;margin-left:4px;&quot;&gt;+ field: Type&lt;/p&gt;&lt;hr size=&quot;1&quot; style=&quot;border-style:solid;&quot;&gt;&lt;p style=&quot;margin:0px;margin-left:4px;&quot;&gt;+ method(): Type&lt;/p&gt;" style="verticalAlign=top;align=left;overflow=fill;html=1;whiteSpace=wrap;" vertex="1" parent="iKIx_cek7uKcYlg8-iLO-84">
          <mxGeometry x="20" y="40" width="160" height="90" as="geometry" />
        </mxCell>
        <mxCell id="iKIx_cek7uKcYlg8-iLO-71" value="" style="endArrow=block;endSize=16;endFill=0;html=1;rounded=0;entryX=0.431;entryY=0;entryDx=0;entryDy=0;entryPerimeter=0;exitX=0.5;exitY=1;exitDx=0;exitDy=0;" edge="1" parent="iKIx_cek7uKcYlg8-iLO-84" source="iKIx_cek7uKcYlg8-iLO-64">
          <mxGeometry x="0.5772" y="31" width="160" relative="1" as="geometry">
            <mxPoint x="950" y="140" as="sourcePoint" />
            <mxPoint x="1290" y="320" as="targetPoint" />
            <Array as="points">
              <mxPoint x="950" y="200" />
              <mxPoint x="1110" y="200" />
              <mxPoint x="1290" y="200" />
            </Array>
            <mxPoint as="offset" />
          </mxGeometry>
        </mxCell>
        <mxCell id="iKIx_cek7uKcYlg8-iLO-72" value="" style="endArrow=block;endSize=16;endFill=0;html=1;rounded=0;entryX=0.431;entryY=0;entryDx=0;entryDy=0;entryPerimeter=0;exitX=0.563;exitY=1;exitDx=0;exitDy=0;exitPerimeter=0;" edge="1" parent="iKIx_cek7uKcYlg8-iLO-84" source="iKIx_cek7uKcYlg8-iLO-63">
          <mxGeometry x="0.5772" y="31" width="160" relative="1" as="geometry">
            <mxPoint x="1110" y="140" as="sourcePoint" />
            <mxPoint x="1290" y="320" as="targetPoint" />
            <Array as="points">
              <mxPoint x="1130" y="200" />
              <mxPoint x="1190" y="200" />
              <mxPoint x="1290" y="200" />
            </Array>
            <mxPoint as="offset" />
          </mxGeometry>
        </mxCell>
        <mxCell id="iKIx_cek7uKcYlg8-iLO-74" value="" style="endArrow=block;endSize=16;endFill=0;html=1;rounded=0;entryX=0.431;entryY=0;entryDx=0;entryDy=0;entryPerimeter=0;exitX=0.5;exitY=1;exitDx=0;exitDy=0;" edge="1" parent="iKIx_cek7uKcYlg8-iLO-84" source="iKIx_cek7uKcYlg8-iLO-65">
          <mxGeometry x="0.5772" y="31" width="160" relative="1" as="geometry">
            <mxPoint x="760" y="200" as="sourcePoint" />
            <mxPoint x="1290" y="320" as="targetPoint" />
            <Array as="points">
              <mxPoint x="780" y="200" />
              <mxPoint x="950" y="200" />
              <mxPoint x="1110" y="200" />
              <mxPoint x="1290" y="200" />
            </Array>
            <mxPoint as="offset" />
          </mxGeometry>
        </mxCell>
        <mxCell id="iKIx_cek7uKcYlg8-iLO-75" value="" style="endArrow=block;endSize=16;endFill=0;html=1;rounded=0;entryX=0.431;entryY=0;entryDx=0;entryDy=0;entryPerimeter=0;exitX=0.563;exitY=1;exitDx=0;exitDy=0;exitPerimeter=0;" edge="1" parent="iKIx_cek7uKcYlg8-iLO-84" source="iKIx_cek7uKcYlg8-iLO-66">
          <mxGeometry x="0.5772" y="31" width="160" relative="1" as="geometry">
            <mxPoint x="600" y="150" as="sourcePoint" />
            <mxPoint x="1290" y="320" as="targetPoint" />
            <Array as="points">
              <mxPoint x="620" y="200" />
              <mxPoint x="780" y="200" />
              <mxPoint x="950" y="200" />
              <mxPoint x="1110" y="200" />
              <mxPoint x="1290" y="200" />
            </Array>
            <mxPoint as="offset" />
          </mxGeometry>
        </mxCell>
        <mxCell id="iKIx_cek7uKcYlg8-iLO-76" value="" style="endArrow=block;endSize=16;endFill=0;html=1;rounded=0;entryX=0.431;entryY=0;entryDx=0;entryDy=0;entryPerimeter=0;exitX=0.5;exitY=1;exitDx=0;exitDy=0;" edge="1" parent="iKIx_cek7uKcYlg8-iLO-84" source="iKIx_cek7uKcYlg8-iLO-67">
          <mxGeometry x="0.5772" y="31" width="160" relative="1" as="geometry">
            <mxPoint x="390" y="200" as="sourcePoint" />
            <mxPoint x="1290" y="320" as="targetPoint" />
            <Array as="points">
              <mxPoint x="440" y="200" />
              <mxPoint x="600" y="200" />
              <mxPoint x="780" y="200" />
              <mxPoint x="950" y="200" />
              <mxPoint x="1110" y="200" />
              <mxPoint x="1290" y="200" />
            </Array>
            <mxPoint as="offset" />
          </mxGeometry>
        </mxCell>
        <mxCell id="iKIx_cek7uKcYlg8-iLO-77" value="" style="endArrow=block;endSize=16;endFill=0;html=1;rounded=0;entryX=0.431;entryY=0;entryDx=0;entryDy=0;entryPerimeter=0;exitX=0.5;exitY=1;exitDx=0;exitDy=0;" edge="1" parent="iKIx_cek7uKcYlg8-iLO-84" source="iKIx_cek7uKcYlg8-iLO-68">
          <mxGeometry x="0.5772" y="31" width="160" relative="1" as="geometry">
            <mxPoint x="270" y="150" as="sourcePoint" />
            <mxPoint x="1290" y="320" as="targetPoint" />
            <Array as="points">
              <mxPoint x="270" y="200" />
              <mxPoint x="440" y="200" />
              <mxPoint x="600" y="200" />
              <mxPoint x="780" y="200" />
              <mxPoint x="950" y="200" />
              <mxPoint x="1110" y="200" />
              <mxPoint x="1290" y="200" />
            </Array>
            <mxPoint as="offset" />
          </mxGeometry>
        </mxCell>
        <mxCell id="iKIx_cek7uKcYlg8-iLO-78" value="" style="endArrow=block;endSize=16;endFill=0;html=1;rounded=0;entryX=0.431;entryY=0;entryDx=0;entryDy=0;entryPerimeter=0;exitX=0.5;exitY=1;exitDx=0;exitDy=0;" edge="1" parent="iKIx_cek7uKcYlg8-iLO-84" source="iKIx_cek7uKcYlg8-iLO-69">
          <mxGeometry x="0.5772" y="31" width="160" relative="1" as="geometry">
            <mxPoint x="100" y="140" as="sourcePoint" />
            <mxPoint x="1290" y="320" as="targetPoint" />
            <Array as="points">
              <mxPoint x="100" y="200" />
              <mxPoint x="270" y="200" />
              <mxPoint x="440" y="200" />
              <mxPoint x="600" y="200" />
              <mxPoint x="780" y="200" />
              <mxPoint x="950" y="200" />
              <mxPoint x="1290" y="200" />
            </Array>
            <mxPoint as="offset" />
          </mxGeometry>
        </mxCell>
        <mxCell id="iKIx_cek7uKcYlg8-iLO-80" value="algo" style="shape=umlFrame;whiteSpace=wrap;html=1;pointerEvents=0;" vertex="1" parent="iKIx_cek7uKcYlg8-iLO-84">
          <mxGeometry width="1580" height="1020" as="geometry" />
        </mxCell>
        <mxCell id="iKIx_cek7uKcYlg8-iLO-85" value="Extends" style="endArrow=block;endSize=16;endFill=0;html=1;rounded=0;exitX=0.999;exitY=0.444;exitDx=0;exitDy=0;exitPerimeter=0;" edge="1" parent="1" source="iKIx_cek7uKcYlg8-iLO-24">
          <mxGeometry x="0.8206" y="19" width="160" relative="1" as="geometry">
            <mxPoint x="-450" y="340" as="sourcePoint" />
            <mxPoint x="320" y="339.17" as="targetPoint" />
            <mxPoint x="-1" as="offset" />
          </mxGeometry>
        </mxCell>
        <mxCell id="iKIx_cek7uKcYlg8-iLO-87" value="" style="endArrow=block;endSize=16;endFill=0;html=1;rounded=0;exitX=1.001;exitY=0.553;exitDx=0;exitDy=0;exitPerimeter=0;" edge="1" parent="1" source="iKIx_cek7uKcYlg8-iLO-26">
          <mxGeometry x="0.795" y="60" width="160" relative="1" as="geometry">
            <mxPoint x="-450" y="180" as="sourcePoint" />
            <mxPoint x="320" y="340" as="targetPoint" />
            <Array as="points">
              <mxPoint x="-220" y="180" />
              <mxPoint x="-220" y="340" />
            </Array>
            <mxPoint as="offset" />
          </mxGeometry>
        </mxCell>
        <mxCell id="iKIx_cek7uKcYlg8-iLO-89" value="&lt;p style=&quot;margin:0px;margin-top:4px;text-align:center;&quot;&gt;&lt;b&gt;BloatLinesFitness&lt;/b&gt;&lt;/p&gt;&lt;hr size=&quot;1&quot; style=&quot;border-style:solid;&quot;&gt;&lt;p style=&quot;margin:0px;margin-left:4px;&quot;&gt;+ field: Type&lt;/p&gt;&lt;hr size=&quot;1&quot; style=&quot;border-style:solid;&quot;&gt;&lt;p style=&quot;margin:0px;margin-left:4px;&quot;&gt;+ method(): Type&lt;/p&gt;" style="verticalAlign=top;align=left;overflow=fill;html=1;whiteSpace=wrap;" vertex="1" parent="1">
          <mxGeometry x="1440" y="60" width="160" height="90" as="geometry" />
        </mxCell>
        <mxCell id="iKIx_cek7uKcYlg8-iLO-90" value="&lt;p style=&quot;margin:0px;margin-top:4px;text-align:center;&quot;&gt;&lt;b&gt;GnuTimeTemplatedFitness&lt;/b&gt;&lt;/p&gt;&lt;hr size=&quot;1&quot; style=&quot;border-style:solid;&quot;&gt;&lt;p style=&quot;margin:0px;margin-left:4px;&quot;&gt;+ field: Type&lt;/p&gt;&lt;hr size=&quot;1&quot; style=&quot;border-style:solid;&quot;&gt;&lt;p style=&quot;margin:0px;margin-left:4px;&quot;&gt;+ method(): Type&lt;/p&gt;" style="verticalAlign=top;align=left;overflow=fill;html=1;whiteSpace=wrap;" vertex="1" parent="1">
          <mxGeometry x="1600" y="540" width="160" height="90" as="geometry" />
        </mxCell>
        <mxCell id="iKIx_cek7uKcYlg8-iLO-94" value="Extends" style="endArrow=block;endSize=16;endFill=0;html=1;rounded=0;exitX=0;exitY=0.609;exitDx=0;exitDy=0;exitPerimeter=0;" edge="1" parent="1" source="iKIx_cek7uKcYlg8-iLO-90">
          <mxGeometry x="0.7782" y="-10" width="160" relative="1" as="geometry">
            <mxPoint x="1590" y="594.8300000000002" as="sourcePoint" />
            <mxPoint x="1010" y="594.79" as="targetPoint" />
            <mxPoint as="offset" />
          </mxGeometry>
        </mxCell>
        <mxCell id="iKIx_cek7uKcYlg8-iLO-95" value="&lt;p style=&quot;margin:0px;margin-top:4px;text-align:center;&quot;&gt;&lt;b&gt;BloatCharsFitness&lt;/b&gt;&lt;/p&gt;&lt;hr size=&quot;1&quot; style=&quot;border-style:solid;&quot;&gt;&lt;p style=&quot;margin:0px;margin-left:4px;&quot;&gt;+ field: Type&lt;/p&gt;&lt;hr size=&quot;1&quot; style=&quot;border-style:solid;&quot;&gt;&lt;p style=&quot;margin:0px;margin-left:4px;&quot;&gt;+ method(): Type&lt;/p&gt;" style="verticalAlign=top;align=left;overflow=fill;html=1;whiteSpace=wrap;" vertex="1" parent="1">
          <mxGeometry x="1440" y="360" width="160" height="90" as="geometry" />
        </mxCell>
        <mxCell id="iKIx_cek7uKcYlg8-iLO-96" value="&lt;p style=&quot;margin:0px;margin-top:4px;text-align:center;&quot;&gt;&lt;b&gt;BloatWordsFitness&lt;/b&gt;&lt;/p&gt;&lt;hr size=&quot;1&quot; style=&quot;border-style:solid;&quot;&gt;&lt;p style=&quot;margin:0px;margin-left:4px;&quot;&gt;+ field: Type&lt;/p&gt;&lt;hr size=&quot;1&quot; style=&quot;border-style:solid;&quot;&gt;&lt;p style=&quot;margin:0px;margin-left:4px;&quot;&gt;+ method(): Type&lt;/p&gt;" style="verticalAlign=top;align=left;overflow=fill;html=1;whiteSpace=wrap;" vertex="1" parent="1">
          <mxGeometry x="1440" y="260" width="160" height="90" as="geometry" />
        </mxCell>
        <mxCell id="iKIx_cek7uKcYlg8-iLO-97" value="" style="endArrow=block;endSize=16;endFill=0;html=1;rounded=0;entryX=1.001;entryY=0.556;entryDx=0;entryDy=0;entryPerimeter=0;exitX=0;exitY=0.667;exitDx=0;exitDy=0;exitPerimeter=0;" edge="1" parent="1" source="iKIx_cek7uKcYlg8-iLO-95">
          <mxGeometry x="0.7782" y="-10" width="160" relative="1" as="geometry">
            <mxPoint x="1380" y="420" as="sourcePoint" />
            <mxPoint x="760" y="510" as="targetPoint" />
            <mxPoint as="offset" />
            <Array as="points">
              <mxPoint x="1240" y="420" />
              <mxPoint x="1240" y="510" />
            </Array>
          </mxGeometry>
        </mxCell>
        <mxCell id="iKIx_cek7uKcYlg8-iLO-98" value="" style="endArrow=block;endSize=16;endFill=0;html=1;rounded=0;entryX=1.001;entryY=0.556;entryDx=0;entryDy=0;entryPerimeter=0;exitX=0;exitY=0.778;exitDx=0;exitDy=0;exitPerimeter=0;" edge="1" parent="1" source="iKIx_cek7uKcYlg8-iLO-96">
          <mxGeometry x="0.7782" y="-10" width="160" relative="1" as="geometry">
            <mxPoint x="1380" y="330" as="sourcePoint" />
            <mxPoint x="760" y="510" as="targetPoint" />
            <mxPoint as="offset" />
            <Array as="points">
              <mxPoint x="1240" y="330" />
              <mxPoint x="1240" y="420" />
              <mxPoint x="1240" y="510" />
            </Array>
          </mxGeometry>
        </mxCell>
        <mxCell id="iKIx_cek7uKcYlg8-iLO-99" value="&lt;p style=&quot;margin:0px;margin-top:4px;text-align:center;&quot;&gt;&lt;b&gt;OutputFitness&lt;/b&gt;&lt;/p&gt;&lt;hr size=&quot;1&quot; style=&quot;border-style:solid;&quot;&gt;&lt;p style=&quot;margin:0px;margin-left:4px;&quot;&gt;+ field: Type&lt;/p&gt;&lt;hr size=&quot;1&quot; style=&quot;border-style:solid;&quot;&gt;&lt;p style=&quot;margin:0px;margin-left:4px;&quot;&gt;+ method(): Type&lt;/p&gt;" style="verticalAlign=top;align=left;overflow=fill;html=1;whiteSpace=wrap;" vertex="1" parent="1">
          <mxGeometry x="1440" y="160" width="160" height="90" as="geometry" />
        </mxCell>
        <mxCell id="iKIx_cek7uKcYlg8-iLO-100" value="" style="endArrow=block;endSize=16;endFill=0;html=1;rounded=0;entryX=1.001;entryY=0.556;entryDx=0;entryDy=0;entryPerimeter=0;exitX=0;exitY=0.778;exitDx=0;exitDy=0;exitPerimeter=0;" edge="1" parent="1" source="iKIx_cek7uKcYlg8-iLO-99">
          <mxGeometry x="0.7782" y="-10" width="160" relative="1" as="geometry">
            <mxPoint x="1380" y="230.01999999999975" as="sourcePoint" />
            <mxPoint x="760" y="510" as="targetPoint" />
            <mxPoint as="offset" />
            <Array as="points">
              <mxPoint x="1240" y="230" />
              <mxPoint x="1240" y="420" />
              <mxPoint x="1240" y="510" />
            </Array>
          </mxGeometry>
        </mxCell>
        <mxCell id="iKIx_cek7uKcYlg8-iLO-101" value="&lt;p style=&quot;margin:0px;margin-top:4px;text-align:center;&quot;&gt;&lt;b&gt;PerfTemplatedFitness&lt;/b&gt;&lt;/p&gt;&lt;hr size=&quot;1&quot; style=&quot;border-style:solid;&quot;&gt;&lt;p style=&quot;margin:0px;margin-left:4px;&quot;&gt;+ field: Type&lt;/p&gt;&lt;hr size=&quot;1&quot; style=&quot;border-style:solid;&quot;&gt;&lt;p style=&quot;margin:0px;margin-left:4px;&quot;&gt;+ method(): Type&lt;/p&gt;" style="verticalAlign=top;align=left;overflow=fill;html=1;whiteSpace=wrap;" vertex="1" parent="1">
          <mxGeometry x="1600" y="640" width="160" height="90" as="geometry" />
        </mxCell>
        <mxCell id="iKIx_cek7uKcYlg8-iLO-102" value="" style="endArrow=block;endSize=16;endFill=0;html=1;rounded=0;entryX=1;entryY=0.442;entryDx=0;entryDy=0;entryPerimeter=0;exitX=0;exitY=0.444;exitDx=0;exitDy=0;exitPerimeter=0;" edge="1" parent="1" source="iKIx_cek7uKcYlg8-iLO-101">
          <mxGeometry x="0.7782" y="-10" width="160" relative="1" as="geometry">
            <mxPoint x="1440" y="750" as="sourcePoint" />
            <mxPoint x="1010" y="594.6400000000001" as="targetPoint" />
            <mxPoint as="offset" />
            <Array as="points">
              <mxPoint x="1440" y="680" />
              <mxPoint x="1440" y="595" />
            </Array>
          </mxGeometry>
        </mxCell>
        <mxCell id="iKIx_cek7uKcYlg8-iLO-103" value="&lt;p style=&quot;margin:0px;margin-top:4px;text-align:center;&quot;&gt;&lt;b&gt;TimeFitness&lt;/b&gt;&lt;/p&gt;&lt;hr size=&quot;1&quot; style=&quot;border-style:solid;&quot;&gt;&lt;p style=&quot;margin:0px;margin-left:4px;&quot;&gt;+ field: Type&lt;/p&gt;&lt;hr size=&quot;1&quot; style=&quot;border-style:solid;&quot;&gt;&lt;p style=&quot;margin:0px;margin-left:4px;&quot;&gt;+ method(): Type&lt;/p&gt;" style="verticalAlign=top;align=left;overflow=fill;html=1;whiteSpace=wrap;" vertex="1" parent="1">
          <mxGeometry x="1840" y="460" width="160" height="90" as="geometry" />
        </mxCell>
        <mxCell id="iKIx_cek7uKcYlg8-iLO-104" value="&lt;p style=&quot;margin:0px;margin-top:4px;text-align:center;&quot;&gt;&lt;b&gt;PosixTimeFitness&lt;/b&gt;&lt;/p&gt;&lt;hr size=&quot;1&quot; style=&quot;border-style:solid;&quot;&gt;&lt;p style=&quot;margin:0px;margin-left:4px;&quot;&gt;+ field: Type&lt;/p&gt;&lt;hr size=&quot;1&quot; style=&quot;border-style:solid;&quot;&gt;&lt;p style=&quot;margin:0px;margin-left:4px;&quot;&gt;+ method(): Type&lt;/p&gt;" style="verticalAlign=top;align=left;overflow=fill;html=1;whiteSpace=wrap;" vertex="1" parent="1">
          <mxGeometry x="1840" y="360" width="160" height="90" as="geometry" />
        </mxCell>
        <mxCell id="iKIx_cek7uKcYlg8-iLO-105" value="&lt;p style=&quot;margin:0px;margin-top:4px;text-align:center;&quot;&gt;&lt;b&gt;PerfTimeFitness&lt;/b&gt;&lt;/p&gt;&lt;hr size=&quot;1&quot; style=&quot;border-style:solid;&quot;&gt;&lt;p style=&quot;margin:0px;margin-left:4px;&quot;&gt;+ field: Type&lt;/p&gt;&lt;hr size=&quot;1&quot; style=&quot;border-style:solid;&quot;&gt;&lt;p style=&quot;margin:0px;margin-left:4px;&quot;&gt;+ method(): Type&lt;/p&gt;" style="verticalAlign=top;align=left;overflow=fill;html=1;whiteSpace=wrap;" vertex="1" parent="1">
          <mxGeometry x="1840" y="260" width="160" height="90" as="geometry" />
        </mxCell>
        <mxCell id="iKIx_cek7uKcYlg8-iLO-106" value="&lt;p style=&quot;margin:0px;margin-top:4px;text-align:center;&quot;&gt;&lt;b&gt;PerfInstructionFitness&lt;/b&gt;&lt;/p&gt;&lt;hr size=&quot;1&quot; style=&quot;border-style:solid;&quot;&gt;&lt;p style=&quot;margin:0px;margin-left:4px;&quot;&gt;+ field: Type&lt;/p&gt;&lt;hr size=&quot;1&quot; style=&quot;border-style:solid;&quot;&gt;&lt;p style=&quot;margin:0px;margin-left:4px;&quot;&gt;+ method(): Type&lt;/p&gt;" style="verticalAlign=top;align=left;overflow=fill;html=1;whiteSpace=wrap;" vertex="1" parent="1">
          <mxGeometry x="1840" y="160" width="160" height="90" as="geometry" />
        </mxCell>
        <mxCell id="iKIx_cek7uKcYlg8-iLO-107" value="" style="endArrow=block;endSize=16;endFill=0;html=1;rounded=0;entryX=1.001;entryY=0.556;entryDx=0;entryDy=0;entryPerimeter=0;exitX=0;exitY=0.667;exitDx=0;exitDy=0;exitPerimeter=0;" edge="1" parent="1" source="iKIx_cek7uKcYlg8-iLO-89">
          <mxGeometry x="0.7782" y="-10" width="160" relative="1" as="geometry">
            <mxPoint x="1380" y="120" as="sourcePoint" />
            <mxPoint x="760" y="510" as="targetPoint" />
            <mxPoint as="offset" />
            <Array as="points">
              <mxPoint x="1240" y="120" />
              <mxPoint x="1240" y="420" />
              <mxPoint x="1240" y="510" />
            </Array>
          </mxGeometry>
        </mxCell>
        <mxCell id="iKIx_cek7uKcYlg8-iLO-109" value="Extends" style="endArrow=block;endSize=16;endFill=0;html=1;rounded=0;exitX=0;exitY=0.556;exitDx=0;exitDy=0;exitPerimeter=0;" edge="1" parent="1" source="iKIx_cek7uKcYlg8-iLO-103">
          <mxGeometry x="0.8704" y="-20" width="160" relative="1" as="geometry">
            <mxPoint x="1830" y="510" as="sourcePoint" />
            <mxPoint x="760" y="510" as="targetPoint" />
            <mxPoint as="offset" />
          </mxGeometry>
        </mxCell>
        <mxCell id="iKIx_cek7uKcYlg8-iLO-110" value="" style="endArrow=block;endSize=16;endFill=0;html=1;rounded=0;exitX=0;exitY=0.889;exitDx=0;exitDy=0;exitPerimeter=0;" edge="1" parent="1" source="iKIx_cek7uKcYlg8-iLO-104">
          <mxGeometry x="0.8704" y="-20" width="160" relative="1" as="geometry">
            <mxPoint x="1680" y="400" as="sourcePoint" />
            <mxPoint x="760" y="510" as="targetPoint" />
            <Array as="points">
              <mxPoint x="1680" y="440" />
              <mxPoint x="1680" y="510" />
            </Array>
            <mxPoint as="offset" />
          </mxGeometry>
        </mxCell>
        <mxCell id="iKIx_cek7uKcYlg8-iLO-111" value="" style="endArrow=block;endSize=16;endFill=0;html=1;rounded=0;exitX=0;exitY=0.889;exitDx=0;exitDy=0;exitPerimeter=0;" edge="1" parent="1" source="iKIx_cek7uKcYlg8-iLO-105">
          <mxGeometry x="0.8704" y="-20" width="160" relative="1" as="geometry">
            <mxPoint x="1680" y="290" as="sourcePoint" />
            <mxPoint x="760" y="510" as="targetPoint" />
            <Array as="points">
              <mxPoint x="1680" y="340" />
              <mxPoint x="1680" y="510" />
            </Array>
            <mxPoint as="offset" />
          </mxGeometry>
        </mxCell>
        <mxCell id="iKIx_cek7uKcYlg8-iLO-112" value="" style="endArrow=block;endSize=16;endFill=0;html=1;rounded=0;exitX=0;exitY=0.889;exitDx=0;exitDy=0;exitPerimeter=0;" edge="1" parent="1" source="iKIx_cek7uKcYlg8-iLO-106">
          <mxGeometry x="0.8704" y="-20" width="160" relative="1" as="geometry">
            <mxPoint x="1680" y="200" as="sourcePoint" />
            <mxPoint x="760" y="510" as="targetPoint" />
            <Array as="points">
              <mxPoint x="1680" y="240" />
              <mxPoint x="1680" y="510" />
            </Array>
            <mxPoint as="offset" />
          </mxGeometry>
        </mxCell>
        <mxCell id="iKIx_cek7uKcYlg8-iLO-113" value="&lt;p style=&quot;margin:0px;margin-top:4px;text-align:center;&quot;&gt;&lt;b&gt;RepairFitness&lt;/b&gt;&lt;/p&gt;&lt;hr size=&quot;1&quot; style=&quot;border-style:solid;&quot;&gt;&lt;p style=&quot;margin:0px;margin-left:4px;&quot;&gt;+ field: Type&lt;/p&gt;&lt;hr size=&quot;1&quot; style=&quot;border-style:solid;&quot;&gt;&lt;p style=&quot;margin:0px;margin-left:4px;&quot;&gt;+ method(): Type&lt;/p&gt;" style="verticalAlign=top;align=left;overflow=fill;html=1;whiteSpace=wrap;" vertex="1" parent="1">
          <mxGeometry x="1440" y="-40" width="160" height="90" as="geometry" />
        </mxCell>
        <mxCell id="iKIx_cek7uKcYlg8-iLO-114" value="" style="endArrow=block;endSize=16;endFill=0;html=1;rounded=0;entryX=1.001;entryY=0.556;entryDx=0;entryDy=0;entryPerimeter=0;exitX=0;exitY=0.778;exitDx=0;exitDy=0;exitPerimeter=0;" edge="1" parent="1" source="iKIx_cek7uKcYlg8-iLO-113">
          <mxGeometry x="0.7782" y="-10" width="160" relative="1" as="geometry">
            <mxPoint x="1430" y="30" as="sourcePoint" />
            <mxPoint x="760" y="510" as="targetPoint" />
            <mxPoint as="offset" />
            <Array as="points">
              <mxPoint x="1240" y="30" />
              <mxPoint x="1240" y="420" />
              <mxPoint x="1240" y="510" />
            </Array>
          </mxGeometry>
        </mxCell>
        <mxCell id="iKIx_cek7uKcYlg8-iLO-115" value="fitness" style="shape=umlFrame;whiteSpace=wrap;html=1;pointerEvents=0;" vertex="1" parent="1">
          <mxGeometry x="1210" y="-60" width="810" height="850" as="geometry" />
        </mxCell>
        <mxCell id="iKIx_cek7uKcYlg8-iLO-118" value="User" style="shape=umlActor;verticalLabelPosition=bottom;verticalAlign=top;html=1;" vertex="1" parent="1">
          <mxGeometry x="410" y="-530" width="30" height="60" as="geometry" />
        </mxCell>
        <mxCell id="iKIx_cek7uKcYlg8-iLO-119" value="software_improvement.py" style="html=1;whiteSpace=wrap;" vertex="1" parent="1">
          <mxGeometry x="150" y="-80" width="150" height="50" as="geometry" />
        </mxCell>
        <mxCell id="iKIx_cek7uKcYlg8-iLO-120" value="patch_operation.py" style="html=1;whiteSpace=wrap;" vertex="1" parent="1">
          <mxGeometry x="325" y="-80" width="150" height="50" as="geometry" />
        </mxCell>
        <mxCell id="iKIx_cek7uKcYlg8-iLO-121" value="visualizer.py" style="html=1;whiteSpace=wrap;" vertex="1" parent="1">
          <mxGeometry x="500" y="-80" width="150" height="50" as="geometry" />
        </mxCell>
        <mxCell id="iKIx_cek7uKcYlg8-iLO-122" value="&lt;div&gt;util.py&lt;/div&gt;" style="html=1;whiteSpace=wrap;" vertex="1" parent="1">
          <mxGeometry x="680" y="-80" width="150" height="50" as="geometry" />
        </mxCell>
        <mxCell id="iKIx_cek7uKcYlg8-iLO-123" value="__main__.py" style="html=1;whiteSpace=wrap;" vertex="1" parent="1">
          <mxGeometry x="350" y="-310" width="150" height="50" as="geometry" />
        </mxCell>
        <mxCell id="iKIx_cek7uKcYlg8-iLO-124" value="Entry point&amp;nbsp;" style="endArrow=open;endSize=12;dashed=1;html=1;rounded=0;entryX=0.5;entryY=0;entryDx=0;entryDy=0;" edge="1" parent="1" target="iKIx_cek7uKcYlg8-iLO-123">
          <mxGeometry width="160" relative="1" as="geometry">
            <mxPoint x="425" y="-430" as="sourcePoint" />
            <mxPoint x="560" y="-370" as="targetPoint" />
            <mxPoint as="offset" />
          </mxGeometry>
        </mxCell>
        <mxCell id="iKIx_cek7uKcYlg8-iLO-125" value="use" style="endArrow=open;endSize=12;dashed=1;html=1;rounded=0;exitX=0.5;exitY=1.06;exitDx=0;exitDy=0;exitPerimeter=0;" edge="1" parent="1" source="iKIx_cek7uKcYlg8-iLO-120">
          <mxGeometry x="0.5918" y="-30" width="160" relative="1" as="geometry">
            <mxPoint x="400" y="-10" as="sourcePoint" />
            <mxPoint x="400" y="120" as="targetPoint" />
            <mxPoint as="offset" />
          </mxGeometry>
        </mxCell>
        <mxCell id="iKIx_cek7uKcYlg8-iLO-126" value="" style="endArrow=open;endSize=12;dashed=1;html=1;rounded=0;exitX=0.473;exitY=1.063;exitDx=0;exitDy=0;exitPerimeter=0;" edge="1" parent="1" source="iKIx_cek7uKcYlg8-iLO-119">
          <mxGeometry x="0.5918" y="20" width="160" relative="1" as="geometry">
            <mxPoint x="180" y="20" as="sourcePoint" />
            <mxPoint x="400" y="120" as="targetPoint" />
            <Array as="points">
              <mxPoint x="220" y="20" />
              <mxPoint x="400" y="20" />
            </Array>
            <mxPoint as="offset" />
          </mxGeometry>
        </mxCell>
        <mxCell id="iKIx_cek7uKcYlg8-iLO-127" value="Entry point&amp;nbsp;" style="endArrow=open;endSize=12;dashed=1;html=1;rounded=0;entryX=0.667;entryY=0;entryDx=0;entryDy=0;entryPerimeter=0;" edge="1" parent="1" target="iKIx_cek7uKcYlg8-iLO-120">
          <mxGeometry x="-0.0002" y="-55" width="160" relative="1" as="geometry">
            <mxPoint x="425" y="-260" as="sourcePoint" />
            <mxPoint x="425" y="-140" as="targetPoint" />
            <mxPoint as="offset" />
          </mxGeometry>
        </mxCell>
        <mxCell id="iKIx_cek7uKcYlg8-iLO-128" value="" style="endArrow=open;endSize=12;dashed=1;html=1;rounded=0;entryX=0.4;entryY=0;entryDx=0;entryDy=0;entryPerimeter=0;" edge="1" parent="1" target="iKIx_cek7uKcYlg8-iLO-121">
          <mxGeometry x="-0.222" y="75" width="160" relative="1" as="geometry">
            <mxPoint x="425" y="-160" as="sourcePoint" />
            <mxPoint x="580" y="-160" as="targetPoint" />
            <mxPoint as="offset" />
            <Array as="points">
              <mxPoint x="560" y="-160" />
            </Array>
          </mxGeometry>
        </mxCell>
        <mxCell id="iKIx_cek7uKcYlg8-iLO-129" value="" style="endArrow=open;endSize=12;dashed=1;html=1;rounded=0;entryX=0.6;entryY=0;entryDx=0;entryDy=0;entryPerimeter=0;" edge="1" parent="1" target="iKIx_cek7uKcYlg8-iLO-119">
          <mxGeometry x="-0.222" y="75" width="160" relative="1" as="geometry">
            <mxPoint x="424.9999999999991" y="-160" as="sourcePoint" />
            <mxPoint x="160" y="-160" as="targetPoint" />
            <mxPoint as="offset" />
            <Array as="points">
              <mxPoint x="240" y="-160" />
            </Array>
          </mxGeometry>
        </mxCell>
        <mxCell id="iKIx_cek7uKcYlg8-iLO-130" value="frame" style="shape=umlFrame;whiteSpace=wrap;html=1;pointerEvents=0;" vertex="1" parent="1">
          <mxGeometry x="120" y="-210" width="740" height="240" as="geometry" />
        </mxCell>
      </root>
    </mxGraphModel>
  </diagram>
</mxfile>
